<svg width="255" height="225" xmlns="http://www.w3.org/2000/svg"><g id="fuelbankfoundation_home" stroke="none" stroke-width="1" fill="none" fill-rule="evenodd" opacity=".203"><path d="M255 3419H145.689C134.557 3385.667 129 3351.225 129 3315.667c0-35.55 9.871-64.717 29.623-87.5 19.742-22.775 48.822-34.167 87.198-34.167v54.167c-28.921 0-43.39 18.333-43.39 55v13.333H255V3419zm-152 0H-6.311C-17.443 3385.667-23 3351.225-23 3315.667c0-35.55 9.871-64.717 29.623-87.5C26.365 3205.392 55.437 3194 93.82 3194v54.167c-28.93 0-43.39 18.333-43.39 55v13.333H103V3419z" transform="translate(0 -3194)" fill="#FFF" id="Fill-1"/></g></svg>