<svg width="255" height="268" xmlns="http://www.w3.org/2000/svg"><g id="fuelbankfoundation_home" stroke="none" stroke-width="1" fill="none" fill-rule="evenodd" opacity=".2"><g transform="matrix(-1 0 0 1 255 0)" fill="#FFF" id="arrow_white"><path d="M131.647.008C63.128-.646 14.477 39.818.258 96.614c51.617.237 95.9.823 119.495 1.714l.72-33.303c52.402 35.153 87.25 70.7 87.25 70.7s-33.545 28.86-90.193 66.878l.74-34.307c-22.943-.192-68.102-.936-118.27-1.782 13.724 57.123 61.309 100.565 129.131 101.197 81.524.778 148.167-58.533 148.864-132.459C278.69 61.326 213.159.775 131.647.008" id="arrow_black"/></g></g></svg>