<svg height="141" viewBox="0 0 142 141" width="142" xmlns="http://www.w3.org/2000/svg"><g fill="none" fill-rule="evenodd"><path d="m141.257533 33.3392711c-3.021247 14.7477411-18.410051 21.5780101-34.408955 18.2806142-15.9989046-3.2981117-26.5497187-15.4756447-23.5277589-30.2233858 3.0212462-14.74774112 18.4400199-24.0294061 34.4389249-20.73129442 15.998904 3.29811167 26.519035 17.92632482 23.497789 32.67406602" fill="#ffd300"/><path d="m13.347001 58.5413391c-.2026533-2.7011878-.3689146-5.3873452-.4966432-8.0577564 1.0239698-.0987715 3.8696784-.2204467 4.8601105-.3185025-.0520904-.8538731-.2033668-4.411797-.2169246-5.2334619-.1170251-1.8852488.0285427-3.7060812.4374171-5.463929.4060201-1.7571319 1.0425226-3.1449441 1.9052261-4.1627208 1.8895277-2.2602944 4.7566433-3.4018934 8.6006332-3.4264764 1.2458894-.0047622 2.3883116.0660957 3.4315477.2156845 1.0075578.1875229 1.99799.3764772 2.9720101.5661473.0392462.6391522.1077487 1.4751319.2076482 2.5043604.0984724 1.0299441.1933769 2.1400507.2854272 3.329604.0906231 1.1917005.1505628 2.0183757.1791055 2.4800254-.5801307-.1775025-1.1588342-.3027563-1.7318292-.3743299-.6115276-.1044975-1.2023618-.157462-1.7717889-.1581777-.7121407.0093046-1.2837085.2676853-1.7154171.7758579-.430995.5088883-.5829849 1.7957817-.4559698 3.8592487.0221206.3557208.1626934 3.3260254.189809 3.4663096.026402.1417158.0520905.4079696.0756382.7987615 1.7739297-.1102234 4.0523518-.1825127 5.7948844-.2190153.2019397 2.7004721.3867538 5.4038071.5530151 8.1071422-1.7725025.1102233-4.0659095.2383401-5.8369849.3836345.3246733 5.26567.7856382 14.8722792 1.0589347 21.0340507-3.9916985.4960051-7.9869649.6735077-11.9829448.528929-.553015-6.0715889-1.1531256-15.6173604-1.4756583-20.8472437-1.0289648.0644163-3.8746733.1503046-4.8672462.2118579" fill="#fff"/><path d="m50.2428111 68.5252843c0 .843137.2447537 1.551.7349748 2.1235888.488794.5740203 1.1524121.8603147 1.9901407.8603147.8748342 0 1.5470151-.2862944 2.019397-.8603147.4723819-.5725888.7071457-1.2804518.7071457-2.1235888 0-4.7188478-.0342512-11.244929-.1048944-15.9652082 3.8796683.0336396 7.757196.1696295 11.6368643.4043909.3846131 4.5850051.541598 10.9937056.4723819 15.6116345 0 1.6519188-.3332362 3.1850254-.9968543 4.601467-.6636181 1.3828021-1.6333567 2.5959746-2.9085025 3.6402335-1.2758593 1.0456904-2.8043216 1.8544721-4.586814 2.4277767-1.8174573.6062284-3.8960805.9097005-6.2387237.9097005-2.341216 0-4.4198392-.3034721-6.2372964-.9097005-1.7810654-.5733046-3.3102413-1.3820863-4.5861006-2.4277767-1.2765728-1.0442589-2.2284723-2.2574314-2.856412-3.6402335-.6643317-1.3820863-.9961407-2.9159086-.9961407-4.601467-.0706432-4.6179289.0863417-10.8992284.4716683-15.4835177 3.84399-.2361929 7.7058191-.3707513 11.5847739-.4051066-.0713568 4.7202791-.105608 11.1189593-.105608 15.8378071" fill="#fff"/><path d="m90.4130412 62.3234315c-.0149849-.4287259-.1312965-.8753452-.3446533-1.3405736-.2147839-.4645127-.5066331-.8846498-.8719799-1.2596955-.3660603-.3736142-.8270251-.6806649-1.3871758-.9197208-.5594372-.2383401-1.2237689-.3449847-1.9937086-.3185025-.7692261.0257665-1.424995.1875228-1.9644522.4845533-.541598.2977462-.9690252.6455939-1.2858493 1.0428274-.315397.3965178-.5430251.8345482-.678603 1.3112284-.1398593.477396-.199799.9082691-.1862412 1.2940508 2.9035075-.0980559 5.8077286-.195396 8.7126633-.2941675m1.1716784 16.6401472c-1.6761709.6198274-3.6648844.8724822-5.8933568.9476345-2.4846432.0837411-4.7281005-.268401-6.7325125-1.0557107-1.9287739-.7558172-3.5942413-1.778604-4.9935478-3.0683604-1.3993065-1.2897563-2.4753668-2.7427005-3.2274673-4.357401-.7535277-1.6147005-1.1588342-3.2515888-1.2173468-4.907802-.0592261-1.6562132.2283418-3.3331828.8641307-5.0309086.6350754-1.6612234 1.6155176-3.183594 2.9384724-4.566396 1.3229547-1.3820863 2.919206-2.5322741 4.7887537-3.4519949 1.9423317-.9211523 4.1743719-1.4243147 6.6961206-1.5102031 2.6309247-.0887512 4.9664322.260528 7.0065226 1.0471219 1.9658794.7551015 3.6384825 1.7771726 5.0206634 3.0676446 1.3821809 1.2897564 2.4296985 2.744132 3.1461206 4.360264.7185626 1.6877056 1.1174476 3.6538325 1.1973666 5.897665.004995.1431472.001427.3127766-.009276.5088883-.011417.1968274-.013558.3843503-.007849.5618528-6.4306738.2526548-13.2481009.2991777-19.6802014.5160457 0 0 .6957286 4.8376599 4.1907839 4.9478832 0 0 3.3559095.3213655 4.6396181-2.830736.9147939.0050101 1.9530351.0214721 4.2778392.0493858 2.3233769.0293452 4.0723316.035071 5.6079292.0186091-1.9380498 6.5532792-8.6127634 8.8565178-8.6127634 8.8565178" fill="#fff"/><path d="m20.8868442 102.647857c-.074211-1.190985-.4730955-2.263158-1.1945125-3.2165179-.7235578-.9519289-1.7446734-1.3870965-3.066201-1.3004924-.6600503.0429442-1.2244825.2140051-1.6947237.5131827-.4709547.2977462-.8569949.6899696-1.1581206 1.1738071-.3011256.4838375-.5116281 1.0163455-.6329346 1.5939445-.120593.580462-.1634071 1.154482-.1277287 1.723492.0399598.639868.1634071 1.23035.3710553 1.770015.2083618.540381.483799 1.031376.825598 1.472985.3403718.442325.7635176.780868 1.2672965 1.01563.5030653.234761 1.0846231.331385 1.7446733.288441 1.3215277-.086604 2.2812764-.649172 2.8799598-1.688421.5965427-1.037817.8598493-2.15365.7856382-3.346066m-5.4923316-12.5260966c1.1467035-.6448782 2.5888241-1.0256497 4.3270753-1.1394518 1.9808644-.1288325 3.7440905.1674823 5.290392.8875127 1.5448744.7207462 2.8542714 1.6891371 3.9239095 2.9044569 1.0710654 1.2160355 1.8980905 2.6088578 2.4860704 4.1777512.5858392 1.5681777.914794 3.2072136.9861508 4.9171066.0670753 1.639036-.1263016 3.295249-.5794171 4.967208-.4195779 1.670528-1.093186 3.196477-2.019397 4.578564-.9254975 1.38137-2.0921809 2.546588-3.4979096 3.495654-1.4406934.986285-3.097598 1.559589-4.9728542 1.717051-1.8046131.153168-3.2874071-.106644-4.4455277-.781584-1.1224422-.640583-2.0957487-1.416441-2.919206-2.326857.0934774.957654.1726834 1.93535.2347638 2.930939-3.9338995.18466-7.87493466.227604-11.82453265.128832-1.46709548-12.904005-2.27271357-26.7628019-2.38403015-39.7555582 3.87110553-.6090914 7.76718593-1.0778985 11.691809-1.4057056.2668744 5.4116802.5872664 11.7466599.9262111 17.1891167.7399698-1.0120507 1.6647538-1.8408731 2.7764925-2.4850355" fill="#fff"/><path d="m52.9263256 103.819374c.0342513-.657762-.021407-1.286178-.168402-1.882386-.1462814-.596924-.3767638-1.143746-.6885929-1.642614-.3118292-.4974369-.7349749-.9032593-1.2694372-1.2174674-.5358895-.3127767-1.1417086-.488132-1.8153166-.523203-.7107136-.0372183-1.3379397.0722893-1.8845327.3299543-.5480201.2569492-1.0025628.6162487-1.3650553 1.0786142-.3617788.4630809-.6564824.9827059-.8812562 1.5603049-.2269146.576883-.356784 1.194563-.3903216 1.85304-.0349649.659193.0206934 1.286178.1691155 1.882386.1455679.596924.3846131 1.144462.7142814 1.644046.3289548.498868.7442513.903974 1.2437488 1.216035s1.1217286.487417 1.867407.526066c.6743216.035071 1.2944121-.073721 1.8602714-.33067.5637186-.255518 1.0268241-.614817 1.388603-1.077898.3624925-.462366.6479196-.983422.8562814-1.561021.2076482-.578314.3282412-1.195995.363206-1.855187m11.1808945 13.83804c-3.9139196.008589-7.8428241-.054396-11.7852864-.191101.0884824-1.029944.1598392-2.043427.2119296-3.040447-.7713668 1.13802-1.7403919 1.97901-2.9070754 2.525117-1.2045025.57903-2.7286834.801624-4.5725427.669213-1.9501809-.138137-3.7019899-.658477-5.2547135-1.559589-1.4849347-.898964-2.7244021-2.01766-3.7226835-3.354655-1.0318191-1.374213-1.7896281-2.877259-2.2741407-4.509853-.483799-1.631162-.6828844-3.265187-.5979698-4.902791.0870553-1.672676.4581105-3.3131425 1.1110251-4.9206857.6486332-1.5359695 1.5591457-2.933802 2.7272563-4.1934974 1.1345729-1.2604112 2.4846432-2.2610102 4.0537789-2.998934 1.6397789-.735061 3.4351156-1.0693097 5.3895779-1.0027462 1.8467135.0615533 3.340211.4258629 4.4804924 1.0922132 1.1053166.6291319 1.988 1.4422081 2.6480503 2.4406599.0114171-.9268782.0449548-1.8888274.0977588-2.8858477 3.9338995.2777055 7.8478191.6269847 11.7396181 1.0449746.2240603 8.6496703-.2240603 17.2449443-1.3450754 25.7879693" fill="#fff"/><path d="m67.9600583 90.6446056c4.0516382-.2140051 8.1018492-.3557208 12.1520603-.4280102-.0349648 1.2833148-.052804 2.5666295-.052804 3.8492285.852-1.1752386 2.0079799-2.1915838 3.4650854-3.0468884 1.4920704-.8195177 3.3751759-1.2117411 5.6493166-1.17667 1.5641407.0365025 2.914211.3034721 4.0516382.8023401 1.1367135.4995837 2.0957487 1.1680812 2.8778191 2.0047766.7813568.8381269 1.3679095 1.8093807 1.7582311 2.9144772.3910352 1.1408832.6051056 2.3876954.6400704 3.741868.1412864 5.7029846-.0185528 11.4238626-.478804 17.1619186-4.0159598.249792-8.0312061.392224-12.0471659.42801.1070352-5.381619.1427136-10.763954.1070352-16.147005 0-.320649-.0356784-.694979-.1070352-1.1222738-.0720703-.4272945-.2133568-.8195178-.426-1.1759544-.2126432-.3557208-.5237588-.6677817-.9326331-.935467-.4088744-.2676852-.9333468-.4015279-1.5727036-.4015279-.5687135 0-1.0489447.1424315-1.4392663.4280102-.3910352.2855787-.7114271.6148172-.9590352.9891472-.2490351.3743299-.4181507.7665533-.5066331 1.1759543-.089196.4101164-.1327236.7586804-.1327236 1.0421114 0 5.383051.0349648 10.765386.105608 16.147005-4.0502111-.035786-8.0840101-.178218-12.0992563-.42801-.6757487-8.588832-.6921608-17.1969897-.052804-25.8230404" fill="#fff"/><g fill="#ffd300"><path d="m2.54800804 126.563532h9.66813066v3.23298h-5.98826131v2.68902h4.63676381v3.044742h-4.63676381v4.943588h-3.67986935z"/><path d="m20.0339166 137.345738c.5408844 0 1.0225427-.101634 1.4449749-.303472.4224321-.200406.779216-.475249 1.0703517-.823096.2918493-.347848.5130553-.757249.6657588-1.230351.1527035-.472385.2283417-.972685.2283417-1.501614 0-.528213-.0756382-1.028513-.2283417-1.500898-.1527035-.473102-.3739095-.883934-.6657588-1.231066-.2911357-.347132-.6479196-.621975-1.0703517-.823813-.4224322-.201837-.9040905-.30204-1.4449749-.30204-.5401709 0-1.0225427.100203-1.4449749.30204-.4231457.201838-.7792161.476681-1.0703518.823813-.2918492.347132-.5130552.757964-.6657587 1.231066-.1527036.472385-.2283418.972685-.2283418 1.500898 0 .528929.0756382 1.029229.2283418 1.501614.1527035.473102.3739095.882503.6657587 1.230351.2911357.347847.6472061.62269 1.0703518.823096.4224322.201838.904804.303472 1.4449749.303472m0 3.462015c-1.0396684 0-2.0001307-.185375-2.8792462-.553979-.8805428-.367173-1.6426332-.875346-2.286985-1.521655-.6450653-.647026-1.1481306-1.418589-1.5077688-2.315406-.3603518-.896818-.5401709-1.873082-.5401709-2.929508s.1798191-2.033406.5401709-2.930223c.3596382-.896818.8627035-1.668381 1.5077688-2.315406.6443518-.64631 1.4064422-1.149472 2.286985-1.511635.8791155-.361447 1.8395778-.541812 2.8792462-.541812 1.0396683 0 2.0029849.180365 2.8899497.541812.8869649.362163 1.6490553.865325 2.2876985 1.511635.6365025.647025 1.136 1.418588 1.4970654 2.315406.3589246.896817.5401708 1.873797.5401708 2.930223s-.1812462 2.03269-.5401708 2.929508c-.3610654.896817-.8605629 1.66838-1.4970654 2.315406-.6386432.646309-1.4007336 1.154482-2.2876985 1.521655-.8869648.368604-1.8502814.553979-2.8899497.553979"/><path d="m29.1200613 126.563532h3.6798694v8.153665c0 .765122.1769648 1.391391.5301809 1.877376.3539296.486701.9390552.729335 1.756804.729335.8177487 0 1.4000201-.246929 1.746814-.740071.3460805-.493142.5194774-1.115832.5194774-1.86664v-8.153665h3.7219699v8.487198c0 .891092-.1455679 1.694148-.4367035 2.409168-.2918493.716452-.7042915 1.324112-1.2373267 1.823695-.5337487.501731-1.1645427.883934-1.8916683 1.148041-.7285528.263391-1.5284623.396518-2.4018694.396518-.873407 0-1.6775979-.133127-2.4118593-.396518-.7349748-.264107-1.3686231-.642015-1.9023718-1.135873-.5330352-.493858-.9454774-1.098655-1.2373266-1.815107-.2911357-.715736-.43599-1.525233-.43599-2.429924z"/><path d="m43.4868935 126.563532h3.3466331l5.3225025 7.757148v-7.757148h3.639196v13.91033h-3.1396985l-5.5308643-7.98833v7.98833h-3.6377688z"/><path d="m63.466793 137.219912c1.2059296 0 2.1378492-.344269 2.7964723-1.032092.6586231-.687822.9875779-1.581061.9875779-2.679715 0-.556127-.0763517-1.060006-.2290553-1.512351-.1519899-.451629-.384613-.84099-.6964422-1.168081-.3118291-.326376-.7028643-.580462-1.1745326-.760827-.4716684-.17965-1.0325327-.270549-1.6840201-.270549h-1.4970654v7.423615zm-5.1769347-10.656594h5.3225025c1.0667839 0 2.0550754.139568 2.9627337.416558.9076583.278421 1.69401.703569 2.3597688 1.272579.6657588.571157 1.1852362 1.300492 1.5598593 2.190152.3739096.888944.5608643 1.939645.5608643 3.148523 0 1.154482-.1905226 2.15866-.5715678 3.013964-.3810452.854589-.904804 1.571041-1.5698493 2.147924-.6657587.576168-1.4549648 1.007757-2.3704723 1.29262-.914794.285578-1.898804.42801-2.9520302.42801h-5.301809z"/><path d="m79.7464151 134.904935-1.5384523-5.108924-1.6005326 5.108924zm-3.5136081-8.341188h4.2200402l4.9064925 13.909614h-3.9702915l-.894814-2.877258h-4.6353367l-.914794 2.877258h-3.8054573z"/><path d="m87.9594382 129.796226h-4.2628543v-3.23298h12.2055779v3.23298h-4.2207538v10.67735h-3.7219698z"/><path d="m97.5647035 140.473934h3.6798695v-13.91033h-3.6798695z"/><path d="m110.414562 137.345738c.540171 0 1.021829-.101634 1.444975-.303472.422432-.200406.779216-.475249 1.070351-.823096.291136-.347848.512342-.757249.665759-1.230351.152704-.472385.228342-.972685.228342-1.501614 0-.528213-.075638-1.028513-.228342-1.500898-.153417-.473102-.374623-.883934-.665759-1.231066-.291135-.347132-.647919-.621975-1.070351-.823813-.423146-.201837-.904804-.30204-1.444975-.30204-.541598 0-1.023256.100203-1.444975.30204-.423146.201838-.780643.476681-1.071065.823813-.291136.347132-.513056.757964-.665759 1.231066-.152704.472385-.228342.972685-.228342 1.500898 0 .528929.075638 1.029229.228342 1.501614.152703.473102.374623.882503.665759 1.230351.290422.347847.647919.62269 1.071065.823096.421719.201838.903377.303472 1.444975.303472m0 3.462015c-1.040382 0-2.000131-.185375-2.880674-.553979-.879829-.367173-1.641919-.875346-2.286271-1.521655-.645065-.647026-1.147417-1.418589-1.507769-2.315406-.359638-.896818-.540171-1.873082-.540171-2.929508s.180533-2.033406.540171-2.930223c.360352-.896818.862704-1.668381 1.507769-2.315406.644352-.64631 1.406442-1.149472 2.286271-1.511635.880543-.361447 1.840292-.541812 2.880674-.541812 1.039668 0 2.002271.180365 2.889236.541812.887678.362163 1.649055.865325 2.287698 1.511635.636503.647025 1.136714 1.418588 1.497066 2.315406.359638.896817.539457 1.873797.539457 2.930223s-.179819 2.03269-.539457 2.929508c-.360352.896817-.860563 1.66838-1.497066 2.315406-.638643.646309-1.40002 1.154482-2.287698 1.521655-.886965.368604-1.849568.553979-2.889236.553979"/><path d="m119.58291 126.563532h3.346633l5.322502 7.757148v-7.757148h3.639196v13.91033h-3.139698l-5.530151-7.98833v7.98833h-3.638482z"/></g><path d="m114.737713 82.1270604c-.791347 8.8915888-1.427136 15.8778883-1.587689 18.6026956.271869-.375762 1.282282-1.8251271 3.032663-4.3452337 1.751809-2.5201066 3.074764-4.4504467 3.973146-5.7895888 4.256432.2533706 8.491457.5582741 12.70793.9154264-5.155528 7.1215736-8.196754 11.3143551-9.125819 12.5804921 3.485065 5.491127 6.266552 9.92368 8.345889 13.296229-4.493337.124538-8.95813.073721-13.392955-.153168-1.700432-3.172142-3.644904-6.715035-5.834844-10.630111-.201226 3.415492-.418864 7.397847-.585125 10.816203-4.003116-.31063-8.000523-.761544-11.987227-1.354889.00999-5.818934.823458-19.0128119 1.833156-33.8829439z" fill="#fff"/><path d="m125.016158 34.8594944c-6.275116-11.1139492-11.168764-17.7824619-11.168764-17.7824619s-7.077166 6.0272132-14.325588 15.3382233l6.174503.5919137c-.8099 7.4722843-2.232754 29.368797-3.416563 46.4970762l12.733618-.0637005c1.373618-15.3296345 3.082613-37.5081472 3.654894-45.1894264z" fill="#fff"/></g></svg>