<svg height="197" viewBox="0 0 199 197" width="199" xmlns="http://www.w3.org/2000/svg"><g fill="none" fill-rule="evenodd"><path d="m197.9595 46.5804c-4.234 20.605-25.8 30.148-48.221 25.541-22.421-4.608-37.207-21.622-32.972-42.227 4.234-20.605 25.842-33.573 48.263-28.965s37.164 25.046 32.93 45.651" fill="#ffd300"/><path d="m18.7046 81.7918c-.284-3.774-.517-7.527-.696-11.258 1.435-.138 5.423-.308 6.811-.445-.073-1.193-.285-6.164-.304-7.312-.164-2.634.04-5.178.613-7.634.569-2.455 1.461-4.394 2.67-5.816 2.648-3.158 6.666-4.753 12.053-4.7873466 1.746-.0066534 3.347.0923466 4.809.3013466 1.412.262 2.8.526 4.165.791.055.893.151 2.061.291 3.499.138 1.439.271 2.99.4 4.652.127 1.665.211 2.82.251 3.465-.813-.248-1.624-.423-2.427-.523-.857-.146-1.685-.22-2.483-.221-.998.013-1.799.374-2.404 1.084-.604.711-.817 2.509-.639 5.392.031.497.228 4.647.266 4.843.037.198.073.57.106 1.116 2.486-.154 5.679-.255 8.121-.306.283 3.773.542 7.55.775 11.327-2.484.154-5.698.333-8.18.536.455 7.357 1.101 20.779 1.484 29.388-5.594.693-11.193.941-16.793.739-.775-8.483-1.616-21.82-2.068-29.127-1.442.09-5.43.21-6.821.296" fill="#fff"/><path d="m70.4107 95.741c0 1.178.343 2.167 1.03 2.967.685.802 1.615 1.202 2.789 1.202 1.226 0 2.168-.4 2.83-1.202.662-.8.991-1.789.991-2.967 0-6.593-.048-15.711-.147-22.306 5.437.047 10.871.237 16.308.565.539 6.406.759 15.36.662 21.812 0 2.308-.467 4.45-1.397 6.429-.93 1.932-2.289 3.627-4.076 5.086-1.788 1.461-3.93 2.591-6.428 3.392-2.547.847-5.46 1.271-8.743 1.271-3.281 0-6.194-.424-8.741-1.271-2.496-.801-4.639-1.931-6.427-3.392-1.789-1.459-3.123-3.154-4.003-5.086-.931-1.931-1.396-4.074-1.396-6.429-.099-6.452.121-15.228.661-21.633 5.387-.33 10.799-.518 16.235-.566-.1 6.595-.148 15.535-.148 22.128" fill="#fff"/><path d="m126.7056 87.076c-.021-.599-.184-1.223-.483-1.873-.301-.649-.71-1.236-1.222-1.76-.513-.522-1.159-.951-1.944-1.285-.784-.333-1.715-.482-2.794-.445-1.078.036-1.997.262-2.753.677-.759.416-1.358.902-1.802 1.457-.442.554-.761 1.166-.951 1.832-.196.667-.28 1.269-.261 1.808 4.069-.137 8.139-.273 12.21-.411m1.642 23.249c-2.349.866-5.136 1.219-8.259 1.324-3.482.117-6.626-.375-9.435-1.475-2.703-1.056-5.037-2.485-6.998-4.287s-3.469-3.832-4.523-6.088c-1.056-2.256-1.624-4.543-1.706-6.857-.083-2.314.32-4.657 1.211-7.029.89-2.321 2.264-4.448 4.118-6.38 1.854-1.931 4.091-3.538 6.711-4.823 2.722-1.287 5.85-1.99 9.384-2.11 3.687-.124 6.96.364 9.819 1.463 2.755 1.055 5.099 2.483 7.036 4.286 1.937 1.802 3.405 3.834 4.409 6.092 1.007 2.358 1.566 5.105 1.678 8.24.007.2.002.437-.013.711-.016.275-.019.537-.011.785-9.012.353-18.566.418-27.58.721 0 0 .975 6.759 5.873 6.913 0 0 4.703.449 6.502-3.955 1.282.007 2.737.03 5.995.069 3.256.041 5.707.049 7.859.026-2.716 9.156-12.07 12.374-12.07 12.374" fill="#fff"/><path d="m29.271 143.4158c-.104-1.664-.663-3.162-1.674-4.494-1.014-1.33-2.445-1.938-4.297-1.817-.925.06-1.716.299-2.375.717-.66.416-1.201.964-1.623 1.64s-.717 1.42-.887 2.227c-.169.811-.229 1.613-.179 2.408.056.894.229 1.719.52 2.473.292.755.678 1.441 1.157 2.058.477.618 1.07 1.091 1.776 1.419.705.328 1.52.463 2.445.403 1.852-.121 3.197-.907 4.036-2.359.836-1.45 1.205-3.009 1.101-4.675m-7.697-17.501c1.607-.901 3.628-1.433 6.064-1.592 2.776-.18 5.247.234 7.414 1.24 2.165 1.007 4 2.36 5.499 4.058 1.501 1.699 2.66 3.645 3.484 5.837.821 2.191 1.282 4.481 1.382 6.87.094 2.29-.177 4.604-.812 6.94-.588 2.334-1.532 4.466-2.83 6.397-1.297 1.93-2.932 3.558-4.902 4.884-2.019 1.378-4.341 2.179-6.969 2.399-2.529.214-4.607-.149-6.23-1.092-1.573-.895-2.937-1.979-4.091-3.251.131 1.338.242 2.704.329 4.095-5.513.258-11.036.318-16.571.18-2.056-18.029-3.185-37.392-3.341-55.545 5.425-.851 10.885-1.506 16.385-1.964.374 7.561.823 16.412 1.298 24.016 1.037-1.414 2.333-2.572 3.891-3.472" fill="#fff"/><path d="m74.1714 145.0526c.048-.919-.03-1.797-.236-2.63-.205-.834-.528-1.598-.965-2.295-.437-.695-1.03-1.262-1.779-1.701-.751-.437-1.6-.682-2.544-.731-.996-.052-1.875.101-2.641.461-.768.359-1.405.861-1.913 1.507-.507.647-.92 1.373-1.235 2.18-.318.806-.5 1.669-.547 2.589-.049.921.029 1.797.237 2.63.204.834.539 1.599 1.001 2.297.461.697 1.043 1.263 1.743 1.699s1.572.681 2.617.735c.945.049 1.814-.103 2.607-.462.79-.357 1.439-.859 1.946-1.506.508-.646.908-1.374 1.2-2.181.291-.808.46-1.671.509-2.592m15.669 19.334c-5.485.012-10.991-.076-16.516-.267.124-1.439.224-2.855.297-4.248-1.081 1.59-2.439 2.765-4.074 3.528-1.688.809-3.824 1.12-6.408.935-2.733-.193-5.188-.92-7.364-2.179-2.081-1.256-3.818-2.819-5.217-4.687-1.446-1.92-2.508-4.02-3.187-6.301-.678-2.279-.957-4.562-.838-6.85.122-2.337.642-4.629 1.557-6.875.909-2.146 2.185-4.099 3.822-5.859 1.59-1.761 3.482-3.159 5.681-4.19 2.298-1.027 4.814-1.494 7.553-1.401 2.588.086 4.681.595 6.279 1.526 1.549.879 2.786 2.015 3.711 3.41.016-1.295.063-2.639.137-4.032 5.513.388 10.998.876 16.452 1.46.314 12.085-.314 24.094-1.885 36.03" fill="#fff"/><path d="m95.2398 126.6453c5.678-.299 11.354-.497 17.03-.598-.049 1.793-.074 3.586-.074 5.378 1.194-1.642 2.814-3.062 4.856-4.257 2.091-1.145 4.73-1.693 7.917-1.644 2.192.051 4.084.424 5.678 1.121 1.593.698 2.937 1.632 4.033 2.801 1.095 1.171 1.917 2.528 2.464 4.072.548 1.594.848 3.336.897 5.228.198 7.968-.026 15.961-.671 23.978-5.628.349-11.255.548-16.883.598.15-7.519.2-15.039.15-22.56 0-.448-.05-.971-.15-1.568-.101-.597-.299-1.145-.597-1.643-.298-.497-.734-.933-1.307-1.307s-1.308-.561-2.204-.561c-.797 0-1.47.199-2.017.598-.548.399-.997.859-1.344 1.382-.349.523-.586 1.071-.71 1.643-.125.573-.186 1.06-.186 1.456 0 7.521.049 15.041.148 22.56-5.676-.05-11.329-.249-16.956-.598-.947-12-.97-24.027-.074-36.079" fill="#fff"/><g fill="#ffd300"><path d="m3.5708 176.8299h13.549v4.517h-8.392v3.757h6.498v4.254h-6.498v6.907h-5.157z"/><path d="m28.0757 191.8944c.758 0 1.433-.142 2.025-.424.592-.28 1.092-.664 1.5-1.15.409-.486.719-1.058.933-1.719.214-.66.32-1.359.32-2.098 0-.738-.106-1.437-.32-2.097-.214-.661-.524-1.235-.933-1.72-.408-.485-.908-.869-1.5-1.151s-1.267-.422-2.025-.422c-.757 0-1.433.14-2.025.422-.593.282-1.092.666-1.5 1.151-.409.485-.719 1.059-.933 1.72-.214.66-.32 1.359-.32 2.097 0 .739.106 1.438.32 2.098.214.661.524 1.233.933 1.719.408.486.907.87 1.5 1.15.592.282 1.268.424 2.025.424m0 4.837c-1.457 0-2.803-.259-4.035-.774-1.234-.513-2.302-1.223-3.205-2.126-.904-.904-1.609-1.982-2.113-3.235-.505-1.253-.757-2.617-.757-4.093s.252-2.841.757-4.094c.504-1.253 1.209-2.331 2.113-3.235.903-.903 1.971-1.606 3.205-2.112 1.232-.505 2.578-.757 4.035-.757s2.807.252 4.05.757c1.243.506 2.311 1.209 3.206 2.112.892.904 1.592 1.982 2.098 3.235.503 1.253.757 2.618.757 4.094s-.254 2.84-.757 4.093c-.506 1.253-1.206 2.331-2.098 3.235-.895.903-1.963 1.613-3.206 2.126-1.243.515-2.593.774-4.05.774"/><path d="m40.8091 176.8299h5.157v11.392c0 1.069.248 1.944.743 2.623.496.68 1.316 1.019 2.462 1.019s1.962-.345 2.448-1.034c.485-.689.728-1.559.728-2.608v-11.392h5.216v11.858c0 1.245-.204 2.367-.612 3.366-.409 1.001-.987 1.85-1.734 2.548-.748.701-1.632 1.235-2.651 1.604-1.021.368-2.142.554-3.366.554s-2.351-.186-3.38-.554c-1.03-.369-1.918-.897-2.666-1.587-.747-.69-1.325-1.535-1.734-2.536-.408-1-.611-2.131-.611-3.395z"/><path d="m60.9429 176.8299h4.69l7.459 10.838v-10.838h5.1v19.435h-4.4l-7.751-11.161v11.161h-5.098z"/><path d="m88.9429 191.7186c1.69 0 2.996-.481 3.919-1.442s1.384-2.209 1.384-3.744c0-.777-.107-1.481-.321-2.113-.213-.631-.539-1.175-.976-1.632-.437-.456-.985-.811-1.646-1.063-.661-.251-1.447-.378-2.36-.378h-2.098v10.372zm-7.255-14.889h7.459c1.495 0 2.88.195 4.152.582 1.272.389 2.374.983 3.307 1.778.933.798 1.661 1.817 2.186 3.06.524 1.242.786 2.71.786 4.399 0 1.613-.267 3.016-.801 4.211-.534 1.194-1.268 2.195-2.2 3.001-.933.805-2.039 1.408-3.322 1.806-1.282.399-2.661.598-4.137.598h-7.43z"/><path d="m111.7573 188.4842-2.156-7.138-2.243 7.138zm-4.924-11.654h5.914l6.876 19.434h-5.564l-1.254-4.02h-6.496l-1.282 4.02h-5.333z"/><path d="m123.2671 181.3465h-5.974v-4.517h17.105v4.517h-5.915v14.918h-5.216z"/><path d="m136.728 196.265h5.157v-19.435h-5.157z"/><path d="m154.7359 191.8944c.757 0 1.432-.142 2.025-.424.592-.28 1.092-.664 1.5-1.15s.718-1.058.933-1.719c.214-.66.32-1.359.32-2.098 0-.738-.106-1.437-.32-2.097-.215-.661-.525-1.235-.933-1.72s-.908-.869-1.5-1.151c-.593-.282-1.268-.422-2.025-.422-.759 0-1.434.14-2.025.422-.593.282-1.094.666-1.501 1.151-.408.485-.719 1.059-.933 1.72-.214.66-.32 1.359-.32 2.097 0 .739.106 1.438.32 2.098.214.661.525 1.233.933 1.719.407.486.908.87 1.501 1.15.591.282 1.266.424 2.025.424m0 4.837c-1.458 0-2.803-.259-4.037-.774-1.233-.513-2.301-1.223-3.204-2.126-.904-.904-1.608-1.982-2.113-3.235-.504-1.253-.757-2.617-.757-4.093s.253-2.841.757-4.094c.505-1.253 1.209-2.331 2.113-3.235.903-.903 1.971-1.606 3.204-2.112 1.234-.505 2.579-.757 4.037-.757 1.457 0 2.806.252 4.049.757 1.244.506 2.311 1.209 3.206 2.112.892.904 1.593 1.982 2.098 3.235.504 1.253.756 2.618.756 4.094s-.252 2.84-.756 4.093c-.505 1.253-1.206 2.331-2.098 3.235-.895.903-1.962 1.613-3.206 2.126-1.243.515-2.592.774-4.049.774"/><path d="m167.5845 176.8299h4.69l7.459 10.838v-10.838h5.1v19.435h-4.4l-7.75-11.161v11.161h-5.099z"/></g><path d="m160.7944 114.7449c-1.109 12.423-2 22.184-2.225 25.991.381-.525 1.797-2.55 4.25-6.071 2.455-3.521 4.309-6.218 5.568-8.089 5.965.354 11.9.78 17.809 1.279-7.225 9.95-11.487 15.808-12.789 17.577 4.884 7.672 8.782 13.865 11.696 18.577-6.297.174-12.554.103-18.769-.214-2.383-4.432-5.108-9.382-8.177-14.852-.282 4.772-.587 10.336-.82 15.112-5.61-.434-11.212-1.064-16.799-1.893.014-8.13 1.154-26.564 2.569-47.34z" fill="#fff"/><path d="m175.1987 48.7044c-8.794-15.528-15.652-24.845-15.652-24.845s-9.918 8.421-20.076 21.43l8.653.827c-1.135 10.44-3.129 41.033-4.788 64.964l17.845-.089c1.925-21.418 4.32-52.405 5.122-63.137z" fill="#fff"/></g></svg>