<svg height="65" viewBox="0 0 152 65" width="152" xmlns="http://www.w3.org/2000/svg"><g fill="none" fill-rule="evenodd"><g fill="#ffd300"><path d="m69.8410407 56.0189724v8.7117931h2.3122832v-3.0957931h2.9131091v-1.9065172h-2.9131091v-1.6855173h3.7623363v-2.0239655z"/><path d="m80.828354 62.7716207c.3398702 0 .6420767-.0632069.9075162-.1896207.2654395-.1259655.4900767-.2981034.6730148-.5159655.1833864-.2178621.3223834-.4742759.4178879-.7701379.0959528-.2963104.1439292-.6096552.1439292-.9409311 0-.3308276-.0479764-.6441724-.1439292-.9400345-.0955045-.2963103-.2345015-.5536207-.4178879-.7710344-.1829381-.2174138-.4075753-.3895518-.6730148-.5159656-.2654395-.1259655-.567646-.1891724-.9075162-.1891724s-.6425251.0632069-.9079646.1891724c-.2658879.1264138-.4900767.2985518-.6730148.5159656-.182938.2174137-.3223834.4747241-.4183363.7710344-.0955044.2958621-.1434808.6092069-.1434808.9400345 0 .3312759.0479764.6446207.1434808.9409311.0959529.295862.2353983.5522758.4183363.7701379.1829381.2178621.4071269.39.6730148.5159655.2654395.1264138.5680944.1896207.9079646.1896207m0 2.1683103c-.6532862 0-1.2568024-.1161034-1.8096519-.3465172-.553298-.2304138-1.0321652-.5482414-1.4370502-.9534828-.4053333-.4047931-.7209911-.8884827-.9474218-1.4497241-.2264307-.5616897-.3394218-1.1735862-.3394218-1.8352414s.1129911-1.2735517.3394218-1.8347931c.2264307-.5616896.5420885-1.0453793.9474218-1.4506207.404885-.4047931.8837522-.7194827 1.4370502-.9467586.5528495-.2263793 1.1563657-.3393448 1.8096519-.3393448.6528377 0 1.2585959.1129655 1.8159292.3393448.5573333.2272759 1.0362006.5419655 1.4370501.9467586.4004012.4052414.7142655.8889311.9406962 1.4506207.2259823.5612414.3394218 1.1731379.3394218 1.8347931s-.1134395 1.2735517-.3394218 1.8352414c-.2264307.5612414-.540295 1.044931-.9406962 1.4497241-.4008495.4052414-.8797168.723069-1.4370501.9534828s-1.1630915.3465172-1.8159292.3465172"/><path d="m86.5372767 56.0190172h2.3122832v5.1067587c0 .4792069.1111976.871.3331445 1.1753793.2223953.3048276.5905133.4567931 1.1039056.4567931.5138407 0 .8797168-.1542069 1.0980767-.463069.2174632-.3093103.3259705-.6988621.3259705-1.1691034v-5.1067587h2.3387375v5.3156552c0 .5576552-.0910207 1.0606207-.2739587 1.5088966-.1833864.4482758-.4425487.828862-.7779351 1.1422069-.3353864.3142413-.7313038.5536207-1.188649.7190344-.4573451.1645173-.9604248.2483449-1.5087905.2483449-.5488142 0-1.0541357-.0838276-1.5155163-.2483449-.4622773-.1654137-.8604365-.4025517-1.1953746-.711862-.3353864-.3088621-.5941003-.6881035-.7774867-1.1368276-.1829381-.4478276-.2744071-.9552759-.2744071-1.5214483z"/><path d="m95.5648212 56.0190172h2.1033393l3.3444485 4.8584138v-4.8584138h2.286277v8.7117931h-1.972413l-3.4753745-5.0027586v5.0027586h-2.2862773z"/><path d="m108.119842 62.6932621c.75731 0 1.343339-.2156207 1.757192-.6468621.413404-.4307931.620554-.9897931.620554-1.6783448 0-.3478621-.047976-.6634483-.143929-.9467586-.095953-.2833104-.241676-.5267242-.437617-.7320345-.196389-.2044138-.441651-.3631035-.738477-.476069-.29593-.1129655-.648803-.1698965-1.057723-.1698965h-.941145v4.6499655zm-3.253428-6.6743793h3.344449c.670772 0 1.291327.0869655 1.861663.2604482.570785.1743793 1.064897.4406552 1.483233.7970345.418337.3577242.744755.8145173.979705 1.3717242.235399.5567586.352873 1.2148275.352873 1.9724137 0 .7226207-.120165 1.3515518-.359598 1.8872414-.239434.5356897-.568095.9839655-.985983 1.3457242-.418336.360862-.91469.6311724-1.48951.8091379-.57482.1788621-1.193581.268069-1.854938.268069h-3.331894z"/><path d="m118.348859 61.2429103-.966702-3.1997931-1.005711 3.1997931zm-2.207811-5.2237586h2.651705l3.083492 8.7113449h-2.494772l-.562266-1.802069h-2.913109l-.57482 1.802069h-2.391198z"/><path d="m123.510044 58.0432517h-2.678608v-2.0244138h7.66905v2.0244138h-2.652153v6.6873793h-2.338289z"/><path d="m129.545251 64.7310345h2.312283v-8.7117931h-2.312283z"/><path d="m137.619455 62.7716207c.339422 0 .642077-.0632069.907964-.1896207.26544-.1259655.489629-.2981034.673015-.5159655.182938-.2178621.321487-.4742759.417888-.7701379.095953-.2963104.143481-.6096552.143481-.9409311 0-.3308276-.047528-.6441724-.143481-.9400345-.096401-.2963103-.23495-.5536207-.417888-.7710344-.183386-.2174138-.407575-.3895518-.673015-.5159656-.265887-.1259655-.568542-.1891724-.907964-.1891724-.33987 0-.642974.0632069-.907965.1891724-.265439.1264138-.490076.2985518-.673014.5159656-.182939.2174137-.322384.4747241-.417888.7710344-.095953.2958621-.143481.6092069-.143481.9400345 0 .3312759.047528.6446207.143481.9409311.095504.295862.234949.5522758.417888.7701379.182938.2178621.407575.39.673014.5159655.264991.1264138.568095.1896207.907965.1896207m0 2.1683103c-.653286 0-1.256354-.1161034-1.809652-.3465172s-1.032165-.5482414-1.436602-.9534828c-.405333-.4047931-.720991-.8884827-.94787-1.4497241-.225982-.5616897-.339422-1.1735862-.339422-1.8352414s.11344-1.2735517.339422-1.8347931c.226879-.5616896.542537-1.0453793.94787-1.4506207.404437-.4047931.883304-.7194827 1.436602-.9467586.553298-.2263793 1.156366-.3393448 1.809652-.3393448s1.258147.1129655 1.815929.3393448c.557333.2272759 1.036201.5419655 1.43705.9467586.399953.4052414.714266.8889311.941145 1.4506207.225982.5612414.338973 1.1731379.338973 1.8347931s-.112991 1.2735517-.338973 1.8352414c-.226879.5612414-.541192 1.044931-.941145 1.4497241-.400849.4052414-.879717.723069-1.43705.9534828-.557782.2304138-1.162643.3465172-1.815929.3465172"/><path d="m143.380524 56.0190172h2.102891l3.344897 4.8584138v-4.8584138h2.286277v8.7117931h-1.972862l-3.474477-5.0027586v5.0027586h-2.286726z"/><path d="m80.6860389 20.8808241c-1.8984306 9.2367242-11.5681416 13.5146207-21.6207669 11.4494138-10.0530738-2.0656551-16.6827847-9.6926207-14.7839056-18.9288965 1.8984307-9.23672416 11.586525-15.04996554 21.6395988-12.98475864 10.0530737 2.06565517 16.6635044 11.22796554 14.7650737 20.46424134"/></g><path d="m.31216047 36.6652448c-.12733923-1.6917931-.23181121-3.3741724-.31207079-5.0466896.6438702-.0618621 2.43155162-.138069 3.05434808-.1994828-.03317994-.5347931-.12823599-2.7631724-.13675516-3.2777931-.07353393-1.1803103.0179351-2.3211724.27485545-3.4221379.25557522-1.1005173.65507965-1.9692759 1.19761652-2.6071724 1.18730384-1.4156552 2.98888496-2.1302069 5.40384661-2.1460505.78286722-.002984 1.50116812.0418436 2.15624782.1350849.6331091.1178966 1.2559056.2362414 1.8674926.3545863.0251091.4007586.067705.9238965.1304779 1.5685172.0623245.645069.1215103 1.3403448.179351 2.0858276.0573923.745931.095056 1.2636896.1129912 1.5528276-.364531-.1111724-.7281652-.1896207-1.0886608-.2344483-.3842596-.065-.7555162-.0986207-1.1133215-.099069-.4474809.0058276-.8066313.1676552-1.0774514.4863793-.27082.3182759-.3667728 1.1242759-.2869616 2.4166552.0138997.2227931.1022301 2.0835862.1192684 2.1714483.0170384.0883103.0327316.2555172.0479764.4998276 1.1142183-.0685862 2.5458879-.1143104 3.6412743-.1371724.1264425 1.6917931.2430207 3.384931.3474927 5.0776206-1.1142183.0690345-2.5553039.1492759-3.668177.2402759.2040118 3.2979655.4936637 9.3147241.6658407 13.173931-2.50867258.3111035-5.01913866.4218276-7.53005311.3312759-.34749262-3.8027241-.72457817-9.7813793-.92679646-13.056931-.64700885.0403448-2.43513864.0941379-3.05883186.1326896" fill="#fff"/><path d="m23.4960165 42.9187828c0 .5276206.1542419.9709655.4618289 1.3300344.3071387.359069.7245782.5383794 1.2509735.5383794.5492625 0 .9716342-.1793104 1.2684602-.5383794.2972743-.3590689.4443421-.8024138.4443421-1.3300344 0-2.9559311-.0215221-7.0433104-.0659115-9.9996897 2.4378289.0215172 4.8747611.1062414 7.31259.2537241.2412271 2.8712069.3398702 6.885069.2963776 9.7773449 0 1.0346207-.2093923 1.9952758-.6263835 2.8819655-.4165428.866069-1.0263363 1.6258965-1.8271386 2.2803793-.8021475.6544828-1.7625723 1.1610345-2.8826195 1.5201034-1.1420177.3796897-2.4481416.5697587-3.9197168.5697587s-2.7776991-.190069-3.9192685-.5697587c-1.1195988-.3590689-2.0804719-.8656206-2.882171-1.5201034-.8016992-.6544828-1.3998349-1.4143103-1.7944071-2.2803793-.4178879-.8656207-.6263835-1.8258276-.6263835-2.8819655-.043941-2.8922759.0547021-6.8263449.2968259-9.6975518 2.4154101-.1474827 4.8415812-.2322069 7.2789617-.2537241-.0443894 2.9568276-.0663599 6.9639655-.0663599 9.9198966" fill="#fff"/><path d="m48.7373876 39.0340241c-.0094159-.2685172-.0820531-.5482413-.2165664-.8396207-.1349616-.290931-.3178997-.5540689-.5479174-.7885172s-.5196696-.4263103-.871646-.5760345c-.351528-.1492758-.7689675-.2160689-1.2523186-.199931-.4837994.0161379-.8958584.1174483-1.2348318.3034827-.3403186.1869311-.6084484.4043449-.8079764.653138-.1981829.2487931-.3412154.5226896-.4264071.8212414-.087882.2994482-.1255457.568862-.1165782.810931 1.824-.0618621 3.6488968-.1228276 5.4742419-.1846897m.736236 10.4219656c-1.0532389.3882069-2.3024189.5468965-3.7027021.5935172-1.5616991.0524483-2.9713982-.1676552-4.2304424-.6612069-1.212413-.472931-2.2584779-1.1139655-3.1377464-1.9217586-.8792684-.8077931-1.5558702-1.7173448-2.0280118-2.7291035-.4739351-1.0113103-.7286135-2.0360689-.7653805-3.0733793-.0372153-1.0373103.1434808-2.0876207.5434336-3.1513793.3990561-1.0404483 1.0146785-1.993931 1.8464189-2.8595517.8308437-.866069 1.8338643-1.5864483 3.0086136-2.1620345 1.2209321-.576931 2.6234572-.892069 4.2075752-.9458621 1.6531682-.0555862 3.120708.1631724 4.4030679.6553793 1.2348318.4729311 2.2858289 1.113069 3.1543362 1.9213104.8685074.8082414 1.5271741 1.7191379 1.9768968 2.7308965.4519646 1.0574828.7026077 2.2884483.7523776 3.6937931.0031386.0901035.001498.1958966-.0053806.3187242-.007174.1232758-.0089675.2407241-.0053805.3518965-4.0403304.1582414-8.3245782.1873793-12.3662537.3232069 0 0 .4376165 3.0298966 2.6337699 3.0993793 0 0 2.1082714.2012759 2.9153511-1.7733793.5743717.003138 1.226761.0134483 2.6875752.0313793 1.4603658.0179311 2.5593392.0215173 3.5242478.0112069-1.2182419 4.1044138-5.4123658 5.5469656-5.4123658 5.5469656" fill="#fff"/><path d="m81.1926608 41.0122655c-.0466313-.745931-.2977227-1.4174483-.7510325-2.0145517-.4542065-.5966552-1.0958348-.8687586-1.9262301-.8149655-.4147492.0273448-.7698643.1344827-1.0653451.3214138-.2959292.186931-.5380531.4325862-.7277168.7351724-.1892154.3034827-.3214867.6365517-.3977109.9987586-.0757758.3631035-.1022301.723069-.0798112 1.0794483.0251091.4007586.10223.7705862.2331563 1.1081379.1309263.3388966.304.6464138.5183245.923.2143245.2770345.479764.489069.7963186.6356552.3161062.1474827.6819823.208 1.0967315.1806552.8303953-.0537931 1.4330148-.406138 1.8092036-1.0570345.375292-.65.5407433-1.3488621.4941121-2.0956897m-3.4511623-7.8452758c.7200944-.4043449 1.6262655-.6428276 2.7189617-.7136552 1.2446961-.0806897 2.3521888.1044483 3.323823.5554138.9707374.451862 1.7935103 1.057931 2.4656283 1.8191034.6734631.7616207 1.1931327 1.6339655 1.5621475 2.6165862.368118.9821724.5748201 2.0091724.6201062 3.0801035.0416991 1.0265517-.0798112 2.0634138-.364531 3.1110345-.263646 1.0462758-.6869144 2.002-1.2684602 2.8671724-.5819941.8656207-1.3150914 1.5954138-2.1983952 2.1898276-.9052744.6177241-1.9459587.9767931-3.124295 1.0754138-1.1343953.095931-2.0661239-.0667931-2.7938407-.4895173-.7048496-.4012069-1.316885-.8875862-1.8343127-1.4577931.0587374.5997931.1085074 1.2125862.1475162 1.8361379-2.4714572.1156552-4.9478466.1425518-7.4296165.0802414-.9223127-8.0819655-1.428531-16.7614827-1.4980295-24.8994827 2.432-.3810345 4.8801416-.6746552 7.3462183-.8799656.1676932 3.3894138.3694631 7.3566552.5819941 10.7657931.4649675-.6343103 1.0460649-1.1529655 1.7450855-1.5564137" fill="#fff"/><path d="m101.324545 41.7460034c.021522-.4124137-.013003-.8055517-.105369-1.1789655-.092365-.373862-.237191-.7167931-.433132-1.0287931s-.461381-.5657241-.7976641-.7625172c-.3367315-.1963448-.7174041-.3057242-1.1406725-.3276897-.4465841-.0233103-.840708.0452759-1.1841652.2062069-.344354.1609311-.6299705.3859655-.857298.6755518-.2277758.2904827-.4129557.6154827-.5541946.9772413-.1425841.3613104-.2241888.7486207-.2452626 1.1610345-.0215221.4124138.013003.8055517.1062655 1.1789655.091469.3738621.2416755.7167931.4492743 1.0296897.2062537.312.4676579.5661724.7815222.7616207.3134159.1954483.7048495.3048276 1.1729557.3290345.4237168.0224138.813357-.0461725 1.1689204-.2066552.3546669-.1600345.6452149-.3855173.8729909-.6755517.227328-.289138.406679-.6154828.537605-.9776897.130926-.3617586.206702-.7486207.228224-1.1614828m7.025628 8.6665173c-2.459351.0053793-4.928118-.034069-7.405404-.1192414.056048-.645069.100885-1.2798276.133168-1.9042759-.484696.7123104-1.0931441 1.2394828-1.8266898 1.581069-.7568614.3626552-1.7145959.502069-2.8727552.4195862-1.2254159-.0865172-2.3261829-.4124138-3.3023008-.9772414-.9326254-.5630344-1.7119057-1.2636896-2.3387375-2.1006206-.6488024-.861138-1.1249794-1.8025173-1.4289794-2.8245863-.3044483-1.0216206-.4295457-2.0454827-.3757404-3.0711379.0547021-1.0471724.2874101-2.0746207.6976755-3.0818965.4080236-.962.9797051-1.8370345 1.7141475-2.6264483.712472-.7889655 1.5612508-1.4156552 2.5472331-1.8782759 1.0299233-.4603793 2.1584896-.6692758 3.3861475-.6280345 1.1604011.039 2.0988554.2667242 2.8153625.6845173.694537.3940345 1.24918.9028276 1.663929 1.5286207.007175-.5805173.028248-1.1834483.061428-1.8074483 2.471906.173931 4.931705.3922414 7.377157.6540345.14079 5.417862-.141239 10.8007586-.845641 16.1513793" fill="#fff"/><path d="m110.771099 33.4944552c2.545887-.1340345 5.090879-.2227931 7.636318-.2685173-.022419.8037587-.033628 1.6079655-.033628 2.4112759.535811-.7365172 1.261734-1.3726207 2.177321-1.9087586.937558-.5132759 2.120826-.7584828 3.549806-.7365173.982843.0228621 1.831174.190069 2.545888.5025173.714265.3124482 1.316884.7311379 1.808306 1.2556207.490974.524931.85954 1.1332413 1.105251 1.824931.245263.7145517.379776 1.4954483.402195 2.3440345.088779 3.571862-.011658 7.154931-.30131 10.7487586-2.523469.156-5.04649.2452069-7.569959.2676207.067705-3.3705862.089676-6.7411724.067705-10.1126552 0-.2008276-.022867-.4352758-.067705-.7028965-.044837-.268069-.133616-.5132759-.267681-.7369656-.133168-.2227931-.329109-.4182413-.58603-.5854482-.256472-.1676552-.586477-.2514828-.988224-.2514828-.356908 0-.658666.0892069-.904377.268069-.245263.178862-.446584.3850689-.60262.6195172-.156035.234-.262749.4801035-.3179.736069-.056495.2573103-.083846.4751724-.083846.6531379 0 3.3714828.02197 6.742069.066808 10.1126552-2.545439-.0224138-5.080118-.1116207-7.60269-.2676207-.424614-5.3797586-.435375-10.7707241-.033628-16.1733448" fill="#fff"/><path d="m140.164805 26.6348483c-.497699 5.5684827-.896755 11.4691379-.998089 13.1761724.170832-.2357931.806183-1.1431035 1.906053-2.7214828 1.100319-1.5788276 1.932059-2.7873793 2.496118-3.6261034 2.675021.1582414 5.336142.3492069 7.985605.5733448-3.239528 4.4598966-5.150962 7.0863448-5.734301 7.8788966 2.189428 3.4396207 3.937204 6.2157931 5.244224 8.3276207-2.823882.0784482-5.62938.0466206-8.416047-.0959311-1.068484-1.9863103-2.290313-4.2057241-3.665935-6.6573448-.126891 2.1391724-.263198 4.6333793-.36767 6.7738965-2.515846-.1941034-5.027209-.4769655-7.532743-.8485862.006726-3.6440344.517428-13.4325862 1.151882-22.7459655z" fill="#fff"/><path d="m70.4810549 21.8331862c-3.9430325-6.9608276-7.0180059-11.1374138-7.0180059-11.1374138s-4.4474573 3.774931-9.0016284 9.6065517l3.8793629.3707242c-.5084602 4.68-1.4025251 18.3941034-2.1468319 29.1222414l8.0017463-.0407931c.8631269-9.6011725 1.9365428-23.4914483 2.29659-28.3027932z" fill="#fff"/></g></svg>