<svg height="90" viewBox="0 0 77 90" width="77" xmlns="http://www.w3.org/2000/svg" xmlns:xlink="http://www.w3.org/1999/xlink"><mask id="a" fill="#fff"><path d="m0 0h77v90h-77z" fill="#fff" fill-rule="evenodd"/></mask><path d="m76.9982113 59.7804497c-.2267319-10.6510817-4.4378798-17.4353578-7.9283958-21.251513-3.8111178-4.1634731-7.5673578-5.7741598-7.7262145-5.8421763-.4751261-.1982606-1.0195715-.1085368-1.4051601.2315453-.3827004.3400821-.5415571.8740833-.4029185 1.3675642 1.3892744 4.978223 2.9272966 13.8275932 1.1437686 16.383274-.2252878.3241634-.4765703.4891394-.8217227.5368956-.4144717-.0492034-2.7901021-.4616434-5.4502305-3.4080568-4.6198431-5.1185973-9.7422511-17.3210323-7.9038453-46.37127901.0332155-.5253183-.2426176-1.01879913-.7047463-1.26626312-.4606845-.24891115-1.0224598-.20549642-1.4398198.11143115-.332155.25180547-8.2143379 6.27777076-14.6581452 15.76244328-3.8140061 5.6120782-6.3152778 11.2661239-7.4316075 16.8029499-1.195758 5.923217-.8029486 11.7104013 1.1610984 17.2486744-3.7129154-1.8219717-9.960318-6.2169901-10.9625597-15.4541987-.0577661-.5267655-.4188041-.9710429-.9242574-1.1331246-.502565-.1606345-1.0556753-.0101301-1.4066043.384944-.19207224.2170737-4.73104275 5.3718499-7.68866655 13.0142905-3.9613096 10.2357475-3.10348317 19.9939329 2.48683017 28.2210253.44191059.706213 6.58677838 10.06643 22.31792878 14.2024072.9979092.2619355 2.0608053.4847978 3.1598051.6613511.0707635.0115773.1415269.0173659.2122904.0173659.0101091 0 .018774 0 .0303272-.0028943.7278527-.0130244 1.3098461-.6092535 1.3098461-1.3400682 0-.4384888-.2094021-.8292214-.5357805-1.072344-6.7080872-5.7379808-9.2873431-11.6684337-10.2722549-15.6379877-.3624822-1.4674181-.5415571-2.7857789-.6195413-3.8856188 2.6283571 2.8074862 5.50222 4.2271481 8.575376 4.2271481 1.5062508 0 2.6976764-.3502122 3.567056-.6526682 3.0038367-1.0491895 4.9649955-4.5107911 5.824266-10.2849509.2787214-1.8769637.3942536-3.6830167.4346899-5.0954428 13.6068024 10.8942043 18.0302407 20.5699017 13.9129627 30.317957-.1964047.4645377-.1169763 1.0028804.2108462 1.3907187.3263784.384944.8419408.5528143 1.3358408.4370417 1.1264388-.2720657 1.821076-.467432 1.9654912-.5093996 7.9153985-1.9782648 13.9707289-7.1315939 17.5089019-14.9042787 2.6687933-5.8653308 3.1612492-11.5222708 3.1251454-13.2067626" fill="#231f20" fill-rule="evenodd" mask="url(#a)"/></svg>