<svg height="68" viewBox="0 0 117 68" width="117" xmlns="http://www.w3.org/2000/svg"><g fill="#020303" fill-rule="evenodd" transform="translate(0 -.916667)"><path d="m83 66.8153403v-6.5771689c0-8.0815637-4.3721869-15.1113193-10.8160183-18.7272562-2.9456193-1.6549927-6.3243726-2.5942485-9.9158394-2.5942485h-8.5362846c-3.6924286 0-7.1575005.9939467-10.1586103 2.7329571-6.3112707 3.6531902-10.5732474 10.6108173-10.5732474 18.5885476v6.5771689s26.5652938 4.7279843 50 0"/><path d="m95.3908939 33.9254361-7.1504604.1954233c-4.1754399.1141273-8.0338759 1.4617667-11.2404335 3.6911562 1.5966746.991969 3.1032205 2.1606006 4.4994367 3.4910428 5.3945068 5.1411974 8.4775261 12.0888884 8.6795385 19.565004l.0815819 3.0486043 26.7394429-1.7556834-.240084-8.8722201c-.311565-11.5557735-9.883066-19.6767862-21.3690221-19.3633271"/><path d="m26.4978198 32.9473935-7.0336579.3850939c-11.29715297.6178514-20.04523619 9.3976823-19.43397965 20.8167208l.46972655 8.7674585 26.7223915-.4454098-.1614207-3.0142488c-.3947539-7.3871521 2.0808733-14.4866437 6.9671005-19.9908569 1.2171578-1.371027 2.5460097-2.6036367 3.9720199-3.6815902-3.3615284-2.0058906-7.3205429-3.0660586-11.5021802-2.8371675"/><path d="m100.356481 2.86431803c-.03457-.01886723-.069925-.03930673-.104494-.05817395-7.241505-4.02029189-16.3858984-1.41346985-20.3841645 5.81189243-3.9809813 7.19155849-1.3874902 16.28792089 5.7754478 20.33808589.0345694.0204395.0699244.0393068.1044939.0589601 3.5512207 1.9708392 7.6453383 2.4283695 11.5304681 1.2853299 3.7947777-1.116311 6.9390227-3.6374443 8.8544817-7.0972223 3.980196-7.1915585 1.386705-16.28792094-5.776233-20.33887207"/><path d="m20.0741854 4.26473421c-.0381675.00844993-.0787204.01613169-.1160927.02458162-8.0978649 1.73300389-13.32124228 9.03220737-11.64505421 16.27072487 1.66903167 7.2039497 9.55220461 11.6739629 17.60951661 10.0085584.0389626-.0084499.0787204-.0161317.1168878-.0253498 3.9702121-.8488339 7.367117-3.0373658 9.5633368-6.1623037 2.1461251-3.051193 2.8840295-6.6408771 2.0809223-10.107653-1.6682365-7.2039497-9.5514094-11.67396284-17.6095166-10.00855839"/><path d="m69.4884817 5.52176806c-6.792878-5.68253387-17.2475659-4.52042388-23.3077724 2.59098402-4.3790079 5.13904052-5.2811144 11.99978212-2.8796232 17.55583312.9206748 2.131046 2.327992 4.0689181 4.2111201 5.6434391 1.8815808 1.5745211 4.0455534 2.6247128 6.3209355 3.1659065 5.9302288 1.4150759 12.6062817-.6163169 16.9845159-5.7553574 6.0602065-7.1121744 5.4637021-17.5182715-1.3291759-23.20080534"/></g></svg>