<svg height="81" viewBox="0 0 118 81" width="118" xmlns="http://www.w3.org/2000/svg" xmlns:xlink="http://www.w3.org/1999/xlink"><mask id="a" fill="#fff"><path d="m0 .06939752h117.966024v48.93060248h-117.966024z" fill="#fff" fill-rule="evenodd"/></mask><mask id="b" fill="#fff"><path d="m.1978425.22616667h56.445743v45.66420003h-56.445743z" fill="#fff" fill-rule="evenodd"/></mask><g fill="#161717" fill-rule="evenodd"><path d="m48.3361714 26.2004531c3.6258182-.3437656 7.3259611.4769844 11.3057792 2.5104844l14.8059351 8.0007813c3.1882987 1.6353749 8.659974 1.1109218 11.5586364-.7709844 1.9347402-1.255625 2.8634156-3.5578594 2.7354545-5.8355938-.0398441-.7817031-.2451948-1.5442656-.6091558-2.2777343 3.8020519-.7066719 6.8087532-1.9255469 10.5334156-3.558625 3.0932856-1.3574532 6.2923116-2.7600782 9.8039606-3.730125 2.832-.7801719 4.651806-.2342813 5.725299 1.7195937l.114169.2059531.234467-.0084218c1.563117-.0528282 2.819741.7196875 3.277949 2.0166562.419129 1.18825-.027585 3.8311875-1.996806 5.3088438l-13.376143 10.3359375c-4.1767398 3.1229843-6.1758437 3.4590937-10.5571684 4.1963906-.9256104.1554219-1.956961.3292187-3.1338961.5489531l-21.1250649 3.9023906c-4.6786234.8682188-9.9081688-.6630312-15.989-4.6810312l-15.6189091-10.3145c-2.7231948-1.7915625-5.3145974-2.8021875-7.6347532-3.3281719-2.4802987-.5619687-4.6495065-.5711562-6.3359871-.3897031l-17.38507788.6515469c-.20841558.0229687-.43675324-.0658438-.68348051-.263375-1.55851949-1.2479688-3.12393507-6.1372501-3.72159741-11.62525-.78462337-7.1953438.29116883-12.39087505 1.74471429-12.55395317l10.95177921-1.20203126c3.8825065-.42339062 5.8172468-1.18978125 9.1779481-2.62226562 11.4061558-4.8479375 23.4551818-2.19504687 33.9265324 7.46790625 4.1813377 3.8664063 8.8201169 7.2022344 14.599052 10.49825 2.4902597 1.4317188 4.9061948 2.7057188 7.243974 3.9360781 1.2949351.6829375 2.5569221 1.3475 3.7721688 2.0082344 2.1025455 1.1691094 3.5154806 2.8320469 3.602065 4.2362031.0720259 1.2816563-.4459481 2.2945782-1.5401299 3.007375-1.9577273 1.2770625-4.9682597 1.647625-7.9703636.0696719l-14.7791169-7.5682031c-4.3583377-2.2348594-8.4937013-3.1689219-12.6405585-2.8580781 0 0-1.0037662 1.2625156-.0160909 2.9667968" mask="url(#a)" transform="translate(0 32)"/><path d="m.21508 14.3535333c.58444 12.8685 11.98824 23.3158667 20.86884 31.5368334 10.96376-5.1029334 30.35592-13.2472334 34.79204-25.3268334 5.25236-14.38266663-17.74372-24.60539997-29.61796-8.1788-6.33156-19.28779997-26.73604-13.3484333-26.04292 1.9688" mask="url(#b)" transform="translate(59 0)"/></g></svg>