<svg height="107" viewBox="0 0 88 107" width="88" xmlns="http://www.w3.org/2000/svg" xmlns:xlink="http://www.w3.org/1999/xlink"><mask id="a" fill="#fff"><path d="m.09150578.98319178h11.85503972v7.3118842h-11.85503972z" fill="#fff" fill-rule="evenodd"/></mask><mask id="b" fill="#fff"><path d="m.08369879.32370462h20.48996141v7.67629538h-20.48996141z" fill="#fff" fill-rule="evenodd"/></mask><g fill="#231f20" fill-rule="evenodd"><path d="m3.15057129 68c-1.25175226 0-2.44197962-.7166684-2.930823-1.8859118-.63538452-1.5177151.1543716-3.2250077 1.75961244-3.8112731 2.30326891-.8415923 3.45546269-1.2634842 5.76096887-2.1039806 1.60747811-.5862654 3.4174291.1676609 4.0449832 1.6864719.6264354 1.518811-.1644393 3.2250078-1.7685615 3.8112732-2.29991303.842688-3.44763227 1.2634842-5.74418937 2.1039806-.36803083.1347862-.74836664.1994398-1.12199064.1994398"/><path d="m8.88496648 39c-.21531339 0-.43614764-.0215424-.65587771-.0667815-2.34857219-.4825503-3.52120203-.7227484-5.86756588-1.2063758-1.65184015-.3392932-2.67319853-1.8828079-2.27569689-3.4457108s2.05596682-2.5538544 3.70118194-2.2145612c2.33532213.4825503 3.50463946.7238254 5.84437828 1.2063757 1.64852768.3392932 2.67209438 1.8828079 2.28784278 3.446788-.3334597 1.3550185-1.618715 2.2802656-3.03426252 2.2802656"/><path d="m16.9062292 19c-.7700085 0-1.5356043-.2888551-2.1125591-.8665652-1.5918656-1.5931814-2.3839373-2.3903318-3.9592555-3.9823935-1.15501267-1.1666163-1.1020608-3.0721641.1036974-4.25557429 1.2068614-1.18229056 3.1054066-1.19572568 4.2560067-.02910943 1.5698023 1.59318132 2.3596677 2.38921222 3.9471207 3.98127392 1.163838 1.1666162 1.143981 3.0721641-.0551582 4.2555742-.605637.5967433-1.3955025.8967943-2.179852.8967943"/><path d="m44 13c-1.6626147 0-3.0054957-1.3507514-3-3.01813785.0088371-2.32872689.0132473-4.63724304.02317-6.96596994.0066152-1.66514078 1.3395735-3.01589221 2.97683-3.01589221 1.636154 0 2.9691123 1.34962861 2.9757274 3.01476939.0110253 2.3287269.0154355 4.63836587.0242726 6.96709276.0054957 1.66626365-1.3373853 3.01701505-3 3.01813785"/><path d="m82.8499171 65c-.3747627 0-.7540002-.0646588-1.1231694-.199456-2.2955615-.8405644-3.444461-1.2613946-5.7444973-2.1030549-1.6030895-.5874088-2.3940066-2.2926477-1.7675376-3.8115816s2.436517-2.2740172 4.0440813-1.6866085c2.3056298.8405645 3.4578853 1.2613946 5.7612777 2.103055 1.6053269.5863129 2.396244 2.2937436 1.7597068 3.8115816-.4888696 1.169338-1.6791608 1.8860644-2.9298615 1.8860644"/><path d="m3.16843636 8.29507598c-1.39745454.00112402-2.66727272-.96637598-2.99672727-2.38162598-.38072727-1.632375.63054546-3.2445 2.25927273-3.6 2.31163636-.505125 3.46581818-.756 5.77418182-1.26 1.62436363-.356625 3.26399996.6795 3.65672726 2.311875s-.6163636 3.2445-2.24836363 3.598875c-2.31709091.50625-3.47672727.757125-5.79709091 1.261125-.216.04725-.43418181.06975098-.648.06975098" mask="url(#a)" transform="translate(76 31)"/><path d="m68.0931088 19c-.7833215 0-1.5743659-.300051-2.1789577-.8967943-1.1992542-1.1822905-1.2191131-3.0878384-.0562668-4.2555742 1.5876052-1.5920617 2.3775463-2.3880926 3.9474991-3.98127392 1.1496071-1.16661625 3.0494376-1.15318113 4.2564146.02910943 1.2058739 1.18341019 1.2588308 3.08783839.1037074 4.25445469-1.5743659 1.5931813-2.3676169 2.3903317-3.9585318 3.9835131-.5781133.5777101-1.3437825.8665652-2.1138648.8665652"/><path d="m20.1322579.324c-.6145263.02171429-.9206842.03085714-1.5363158.05257143h.0011053c-5.7042632.19771428-8.5569474.296-14.26010529.49257143-1.53631579.05257143-2.30336843.07885714-3.83968421.13257143-.31168422.01028571-.50952632.34857142-.36584211.63428571 1.98836842 3.96228571 6.0358421 6.50971429 10.42373681 6.35771429 4.4287895-.15314286 8.2640527-2.92914286 9.9838421-7.064.1226842-.29485715-.0961579-.61714286-.4067368-.60571429" mask="url(#b)" transform="translate(34 99)"/><path d="m64.4256572 26.3559536c-5.4271485-5.2977485-12.5300674-8.2646216-20.0726962-8.3538845-7.6677854-.0914943-14.9468098 2.8541788-20.5711077 8.2679691-5.5511976 5.3390326-8.7199877 12.3807535-8.7809047 19.8263888-.047626 5.7050102 1.6990298 11.2036001 5.0206661 15.8988246 5.0383874 7.1231733 8.1717349 13.1562244 8.2736324 21.2077311.0011076.1171574.013291.2320833.034335.3447776v.0022316c.0155062 1.0923538.0232593 1.6390886.0387654 2.7314424.0055379.3961038.3378123.7185657.7398643.7185657h1.3025156c10.0634839 0 15.0963333 0 25.1598172-.0011158v.0011158h3.3338197c.402052 0 .735434-.3224619.7409719-.7207973.013291-1.0945854.0199365-1.6424359.0332274-2.7381371v-.0011158c.0210441-.1104627.0321199-.2220413.0343351-.3391987.0963595-8.1151064 3.2075555-14.1035261 8.2116078-21.1329734 3.3448956-4.6974561 5.1114878-10.2038565 5.0754935-15.9211404-.0481819-7.4612562-3.1460868-14.4907035-8.5743428-19.7906837"/><path d="m58.095817 91.2708817c-.420854-.0179738-.631281-.0264321-1.0521349-.0454632v-.0010573c-9.9616789-.4356011-14.9436201-.6534016-24.9041973-1.0890026-1.227307-.0539215-1.8398588-.0803536-3.0671659-.1342751-.5288217-.0243175-.9706081.3637057-.9849304.8606293-.0363565 1.179929-.0539839 1.7709508-.0870352 2.9508799-.0143223.4905798.4087351.8997488.9265397.9219517.4814481.0211457.7216212.0327758 1.2030693.0528642v.0010573c9.4714172.4144554 14.2076766.6216831 23.6790937 1.0361384h-.0033051c1.5963805.0697808 2.3940199.1036139 3.9904004.1744519.5178046.022203.9783202-.349961 1.0113715-.8394836.0782216-1.1788717.1156798-1.767779.1905962-2.9455935.0330513-.4979808-.3734803-.9198372-.902302-.9430974"/></g></svg>